<svg width="197" height="307" viewBox="0 0 197 307" fill="none" xmlns="http://www.w3.org/2000/svg">
<path d="M126.953 292.18L155.633 285.602C157.71 285.126 158.97 283.983 159.608 281.964L168.694 253.978C169.759 250.716 169.788 248.373 166.62 244.911L149.226 225.906C146.963 223.434 144.598 222.734 141.506 223.408L115.686 229.278C111.253 230.28 108.448 232.847 107.058 237.174L98.931 262.375C97.9601 265.418 98.4745 267.813 100.737 270.285L118.131 289.29C121.299 292.752 123.63 292.934 126.953 292.18ZM126.219 287.068C124.104 287.538 122.911 287.176 121.673 285.823L105.1 267.715L133.561 261.286L151.812 281.227L126.219 287.068ZM163.692 252.771L155.608 277.753L137.357 257.812L146.281 230.025L162.853 248.133C164.092 249.486 164.322 250.73 163.692 252.771ZM132.378 256.208L104.265 262.682L111.819 239.191C112.706 236.403 114.396 234.809 117.249 234.222L141.336 228.753L132.378 256.208Z" fill="#0A84FF"/>
<path d="M116.865 71.9277C114.604 73.9698 114.249 76.8958 116.498 78.8748L139.947 99.3913C141.134 100.419 142.499 100.86 144.137 100.724L175.111 97.8223C178.1 97.5369 179.525 94.9563 178.887 91.9771L166.646 33.8521C166.271 32.0676 165.311 31.4149 164.297 31.087C163.316 30.7698 162.163 30.7395 160.814 31.967L116.865 71.9277ZM121.541 74.5075L161.264 38.5984C161.477 38.3905 161.709 38.3049 161.94 38.3796C162.204 38.4649 162.35 38.6655 162.399 38.9654L173.553 91.3214C173.742 92.2961 173.268 92.9038 172.45 92.9906L144.51 96.1108C143.528 96.2192 143.057 96.067 142.358 95.481L121.485 76.5154C120.872 75.9659 120.816 75.187 121.541 74.5075ZM140.288 97.4087L144.974 98.9236L165.123 36.5932L160.437 35.0782L140.288 97.4087Z" fill="#0A84FF"/>
<path d="M32.4499 77.7556L58.6027 82.0855C60.4663 82.4007 61.9248 81.8661 63.1701 80.4112L93.5348 48.9728C95.5424 46.6144 96.3287 44.6725 94.8868 40.7391L86.9007 18.9534C85.8518 16.0922 84.1512 14.6878 81.3555 14.2144L57.8197 10.2984C53.7846 9.59348 50.5647 10.7738 47.9412 13.9196L19.3066 43.3506C17.4523 45.5285 17.0617 47.6996 18.1105 50.5608L26.0964 72.3458C27.5385 76.2799 29.4212 77.2434 32.4499 77.7556ZM33.595 73.2169C31.6763 72.9219 30.7833 72.1884 30.2287 70.6756L22.6156 49.9076L48.5386 54.2905L56.9077 77.1209L33.595 73.2169ZM89.7551 46.2394L61.2279 75.5372L52.8588 52.7069L83.0408 21.3667L90.6539 42.1346C91.2084 43.6475 91.0004 44.7845 89.7551 46.2394ZM49.3006 49.6423L23.6512 45.409L51.2271 17.177C52.9023 15.1904 54.8458 14.4467 57.4458 14.8974L79.3706 18.5931L49.3006 49.6423Z" fill="#0A84FF"/>
<path d="M35.4346 152.566C32.8895 159.849 44.0143 169.727 61.9173 175.983C79.8529 182.251 94.7089 181.453 97.254 174.17C97.6077 173.158 97.6265 171.532 97.3956 169.994L92.5201 136.929L87.223 137.726L92.3269 170.445C92.4784 171.333 92.5628 172.14 92.4414 172.488C91.1517 176.178 77.4456 176.01 63.599 171.171C49.785 166.343 38.9246 157.927 40.2143 154.236C40.3314 153.901 40.8953 153.362 41.5084 152.775L41.5765 152.709L66.4911 130.481L63.1112 126.652L37.9251 149.211C36.786 150.27 35.7883 151.554 35.4346 152.566Z" fill="#0A84FF"/>
<path d="M74.3217 141.033C83.4657 144.229 91.1273 143.751 92.5786 139.598C94.0236 135.463 88.3458 130.322 79.1837 127.12C70.0254 123.92 62.7457 124.935 61.4264 128.711C60.107 132.486 65.1812 137.839 74.3217 141.033ZM75.9926 136.252C73.0465 135.222 65.979 132.355 66.6182 130.526C67.2573 128.697 73.0758 130.165 77.5755 131.722C82.0751 133.279 87.9892 135.544 87.226 137.728C86.4628 139.911 78.9387 137.281 75.9926 136.252Z" fill="#0A84FF"/>
<path d="M163.873 197.802C179.82 192.506 188.425 182.933 185.594 174.408L173.183 137.035L168.214 138.685L180.626 176.058C182.536 181.81 175.283 188.86 162.332 193.161C149.387 197.46 139.358 196.149 137.448 190.397L125.036 153.024L120.067 154.674L132.479 192.048C135.31 200.572 147.926 203.098 163.873 197.802ZM150.989 159.005C166.936 153.709 175.775 144.839 173.183 137.035C170.6 129.257 158.213 127.443 142.266 132.739C126.319 138.035 117.484 146.896 120.067 154.674C122.659 162.478 135.041 164.301 150.989 159.005ZM149.436 154.331C136.491 158.63 126.698 158.029 125.036 153.024C123.32 147.855 130.764 141.384 143.709 137.086C156.661 132.784 166.498 133.516 168.214 138.685C169.876 143.69 162.388 150.03 149.436 154.331Z" fill="#0A84FF"/>
<path d="M16.4319 264.993C18.5467 272.412 33.3303 274.078 51.5686 268.88C69.8401 263.671 81.5238 254.461 79.409 247.042C79.1151 246.011 78.1938 244.671 77.1191 243.547L35.645 201.787C34.3804 200.501 33.1868 200.503 32.1617 200.795C31.1366 201.087 30.1548 201.706 29.7511 203.467L16.5348 260.816C16.2139 262.338 16.138 263.962 16.4319 264.993ZM21.3011 263.605C21.2002 263.251 21.3652 262.441 21.535 261.572L33.8229 208.723C33.8821 208.425 34.0291 208.232 34.2626 208.165C34.5294 208.089 34.7561 208.176 34.9636 208.398L73.2359 246.835C73.8713 247.474 74.4054 248.085 74.5063 248.439C75.5778 252.199 64.2771 259.956 50.1712 263.977C36.0985 267.988 22.3726 267.365 21.3011 263.605Z" fill="#0A84FF"/>
</svg>
