<svg width="175" height="175" viewBox="0 0 175 175" fill="none" xmlns="http://www.w3.org/2000/svg">
<path d="M93.9496 59.8116C91.8827 62.05 91.7936 64.9962 94.213 66.7634L119.423 85.0722C120.699 85.9879 122.098 86.3036 123.717 86.0197L154.301 80.3253C157.252 79.7703 158.437 77.0714 157.532 74.1622L140.077 17.3845C139.543 15.6413 138.528 15.0781 137.488 14.8434C136.482 14.6164 135.331 14.6906 134.099 16.0352L93.9496 59.8116ZM98.8392 61.9574L135.148 22.5986C135.341 22.3723 135.564 22.2661 135.801 22.3196C136.071 22.3806 136.236 22.5671 136.312 22.8613L152.161 73.9922C152.438 74.9458 152.02 75.5939 151.213 75.7544L123.671 81.3919C122.702 81.5888 122.22 81.4799 121.471 80.9596L98.9654 63.9621C98.3051 63.4704 98.1796 62.6996 98.8392 61.9574ZM119.583 83.0668L124.388 84.1512L138.81 20.2522L134.005 19.1678L119.583 83.0668Z" fill="#0A84FF"/>
<path d="M29.1757 78.2736L55.3284 82.6035C57.1921 82.9187 58.6505 82.384 59.8959 80.9292L90.2606 49.4908C92.2682 47.1324 93.0545 45.1904 91.6126 41.257L83.6265 19.4714C82.5776 16.6102 80.877 15.2057 78.0813 14.7324L54.5455 10.8164C50.5103 10.1114 47.2905 11.2918 44.667 14.4376L16.0324 43.8685C14.1781 46.0465 13.7874 48.2176 14.8363 51.0788L22.8222 72.8638C24.2643 76.7978 26.147 77.7614 29.1757 78.2736ZM30.3208 73.7348C28.402 73.4399 27.509 72.7064 26.9545 71.1935L19.3414 50.4256L45.2644 54.8085L53.6335 77.6389L30.3208 73.7348ZM86.4808 46.7574L57.9537 76.0552L49.5846 53.2248L79.7666 21.8846L87.3796 42.6526C87.9342 44.1654 87.7262 45.3025 86.4808 46.7574ZM46.0264 50.1602L20.377 45.927L47.9529 17.695C49.6281 15.7084 51.5716 14.9647 54.1715 15.4154L76.0964 19.1111L46.0264 50.1602Z" fill="#0A84FF"/>
<path d="M14.1401 149.623C13.324 157.294 26.4092 164.373 45.2675 166.379C64.1602 168.389 78.442 164.222 79.2582 156.55C79.3716 155.484 79.0189 153.897 78.4431 152.452L55.6158 98.2035C54.9243 96.5383 53.8169 96.0927 52.757 95.9799C51.6971 95.8672 50.555 96.0734 49.5216 97.5552L15.7992 145.788C14.9319 147.079 14.2535 148.557 14.1401 149.623ZM19.1748 150.159C19.2137 149.792 19.6702 149.103 20.1526 148.361L51.3296 103.954C51.4961 103.7 51.7047 103.575 51.9462 103.601C52.222 103.63 52.3998 103.796 52.5091 104.079L73.6112 154.048C73.9613 154.878 74.2277 155.645 74.1888 156.011C73.7752 159.898 60.3922 162.862 45.8068 161.31C31.2557 159.762 18.7613 154.046 19.1748 150.159Z" fill="#0A84FF"/>
<path d="M137.045 164.08C152.984 158.759 161.574 149.172 158.73 140.652L146.26 103.298L141.293 104.956L153.764 142.31C155.683 148.058 148.441 155.12 135.496 159.441C122.558 163.76 112.527 162.465 110.608 156.717L98.1379 119.363L93.1717 121.021L105.642 158.375C108.486 166.895 121.106 169.401 137.045 164.08ZM124.1 125.303C140.039 119.982 148.864 111.098 146.26 103.298C143.664 95.5239 131.275 93.7298 115.336 99.0508C99.397 104.372 90.5764 113.247 93.1717 121.021C95.7757 128.821 108.161 130.624 124.1 125.303ZM122.54 120.631C109.602 124.95 99.8079 124.365 98.1379 119.363C96.4133 114.197 103.848 107.714 116.786 103.395C129.731 99.0737 139.569 99.7898 141.293 104.956C142.963 109.958 135.485 116.31 122.54 120.631Z" fill="#0A84FF"/>
</svg>
